<svg width="56" height="57" viewBox="0 0 56 57" fill="none" xmlns="http://www.w3.org/2000/svg">
<rect x="0.345703" y="0.95697" width="56" height="55.6989" rx="2" fill="white"/>
<g clip-path="url(#clip0_1_512)">
<path d="M29.6711 28.8072L40.0706 18.4077C40.4368 18.0415 40.4368 17.4479 40.0706 17.0818C39.7045 16.7157 39.1109 16.7157 38.7448 17.0818L28.3452 27.4814L17.9457 17.0818C17.5795 16.7157 16.9859 16.7157 16.6198 17.0818C16.2537 17.4479 16.2537 18.0416 16.6198 18.4077L27.0193 28.8072L16.6198 39.2068C16.2537 39.5729 16.2537 40.1665 16.6198 40.5326C16.8029 40.7157 17.0428 40.8072 17.2828 40.8072C17.5227 40.8072 17.7626 40.7157 17.9457 40.5326L28.3452 30.1331L38.7447 40.5326C38.9278 40.7157 39.1677 40.8072 39.4077 40.8072C39.6476 40.8072 39.8875 40.7157 40.0706 40.5326C40.4368 40.1665 40.4368 39.5729 40.0706 39.2068L29.6711 28.8072Z" fill="#135978" fill-opacity="0.5"/>
</g>
<defs>
<clipPath id="clip0_1_512">
<rect width="24" height="24" fill="white" transform="translate(16.3457 16.8065)"/>
</clipPath>
</defs>
</svg>
